<?xml version="1.0" encoding="UTF-8" standalone="no"?>
<svg
   viewBox="0 0 24 24"
   version="1.1"
   id="svg1"
   sodipodi:docname="account-music.svg"
   inkscape:version="1.4.2 (ebf0e940d0, 2025-05-08)"
   xmlns:inkscape="http://www.inkscape.org/namespaces/inkscape"
   xmlns:sodipodi="http://sodipodi.sourceforge.net/DTD/sodipodi-0.dtd"
   xmlns="http://www.w3.org/2000/svg"
   xmlns:svg="http://www.w3.org/2000/svg">
  <defs
     id="defs1" />
  <sodipodi:namedview
     id="namedview1"
     pagecolor="#ffffff"
     bordercolor="#000000"
     borderopacity="0.25"
     inkscape:showpageshadow="2"
     inkscape:pageopacity="0.0"
     inkscape:pagecheckerboard="0"
     inkscape:deskcolor="#d1d1d1"
     inkscape:zoom="33.666667"
     inkscape:cx="11.985149"
     inkscape:cy="12"
     inkscape:window-width="975"
     inkscape:window-height="988"
     inkscape:window-x="0"
     inkscape:window-y="0"
     inkscape:window-maximized="0"
     inkscape:current-layer="svg1" />
  <path
     d="M11,14C12,14 13.05,14.16 14.2,14.44C13.39,15.31 13,16.33 13,17.5C13,18.39 13.25,19.23 13.78,20H3V18C3,16.81 3.91,15.85 5.74,15.12C7.57,14.38 9.33,14 11,14M11,12C9.92,12 9,11.61 8.18,10.83C7.38,10.05 7,9.11 7,8C7,6.92 7.38,6 8.18,5.18C9,4.38 9.92,4 11,4C12.11,4 13.05,4.38 13.83,5.18C14.61,6 15,6.92 15,8C15,9.11 14.61,10.05 13.83,10.83C13.05,11.61 12.11,12 11,12M18.5,10H20L22,10V12H20V17.5A2.5,2.5 0 0,1 17.5,20A2.5,2.5 0 0,1 15,17.5A2.5,2.5 0 0,1 17.5,15C17.86,15 18.19,15.07 18.5,15.21V10Z"
     id="path1"
     style="fill:#ffffff;fill-opacity:1" />
</svg>
